<?xml version="1.0" standalone="yes"?>

<svg version="1.1" viewBox="0.0 0.0 153.52230971128608 100.0" fill="none" stroke="none" stroke-linecap="square" stroke-miterlimit="10" xmlns="http://www.w3.org/2000/svg" xmlns:xlink="http://www.w3.org/1999/xlink"><clipPath id="p.0"><path d="m0 0l153.52231 0l0 100.0l-153.52231 0l0 -100.0z" clip-rule="nonzero"></path></clipPath><g clip-path="url(#p.0)"><path fill="#000000" fill-opacity="0.0" d="m0 0l153.52231 0l0 100.0l-153.52231 0z" fill-rule="evenodd"></path><path fill="#2a4c75" d="m130.15224 61.06824l0 -35.68504l-26.078743 35.68504z" fill-rule="evenodd"></path><path fill="#2a4c75" d="m37.00263 60.12336l0 -33.795277l-27.496063 33.795277z" fill-rule="evenodd"></path><path fill="#2a4c75" d="m60.218227 50.435696l0 0c0 -12.793873 6.542988 -23.165354 14.61417 -23.165354l0 0c3.8759232 0 7.593094 2.440628 10.333786 6.784975c2.7406845 4.344345 4.280388 10.236546 4.280388 16.380379l0 0c0 12.793873 -6.542984 23.165356 -14.614174 23.165356l0 0c-8.071182 0 -14.61417 -10.371483 -14.61417 -23.165356z" fill-rule="evenodd"></path><path fill="#000000" fill-opacity="0.0" d="m-4.3097115 -7.023622l162.14172 0l0 98.04724l-162.14172 0z" fill-rule="evenodd"></path><path fill="#4072af" d="m42.37779 56.9795l7.265625 0l0 5.71875q0 0.796875 -0.515625 1.375q-0.515625 0.578125 -1.515625 0.578125l-5.234375 0l0 14.125l-8.640625 0l0 -14.125l-24.40625 0q-1.0 0 -1.765625 -0.609375q-0.75 -0.625 -0.953125 -1.546875l-1.0 -5.0l27.390625 -36.59375l9.375 0l0 36.078125zm-8.640625 -18.921875q0 -1.28125 0.078125 -2.75q0.078125 -1.484375 0.28125 -3.09375l-17.96875 24.765625l17.609375 0l0 -18.921875zm61.759342 11.796875q0 7.5625 -1.625 13.140625q-1.625 5.578125 -4.484375 9.21875q-2.859375 3.640625 -6.765625 5.421875q-3.890625 1.78125 -8.40625 1.78125q-4.53125 0 -8.390625 -1.78125q-3.8593788 -1.78125 -6.703129 -5.421875q-2.828125 -3.640625 -4.4375 -9.21875q-1.59375 -5.578125 -1.59375 -13.140625q0 -7.59375 1.59375 -13.15625q1.609375 -5.562502 4.4375 -9.203127q2.84375 -3.640625 6.703129 -5.421875q3.859375 -1.78125 8.390625 -1.78125q4.515625 0 8.40625 1.78125q3.90625 1.78125 6.765625 5.421875q2.859375 3.640625 4.484375 9.203127q1.625 5.5625 1.625 13.15625zm-10.203125 0q0 -6.28125 -0.921875 -10.390625q-0.921875 -4.125 -2.46875 -6.5625q-1.53125 -2.437502 -3.53125 -3.421877q-2.0 -0.984375 -4.15625 -0.984375q-2.125 0 -4.109375 0.984375q-1.96875 0.984375 -3.5 3.421877q-1.515625 2.4375 -2.421875 6.5625q-0.8906288 4.109375 -0.8906288 10.390625q0 6.28125 0.8906288 10.40625q0.90625 4.109375 2.421875 6.5625q1.53125 2.4375 3.5 3.421875q1.984375 0.96875 4.109375 0.96875q2.15625 0 4.15625 -0.96875q2.0 -0.984375 3.53125 -3.421875q1.546875 -2.453125 2.46875 -6.5625q0.921875 -4.125 0.921875 -10.40625zm49.88434 7.125l7.265625 0l0 5.71875q0 0.796875 -0.515625 1.375q-0.515625 0.578125 -1.515625 0.578125l-5.234375 0l0 14.125l-8.640625 0l0 -14.125l-24.40625 0q-1.0 0 -1.765625 -0.609375q-0.75 -0.625 -0.953125 -1.546875l-1.0 -5.0l27.390625 -36.59375l9.375 0l0 36.078125zm-8.640625 -18.921875q0 -1.28125 0.078125 -2.75q0.078125 -1.484375 0.28125 -3.09375l-17.96875 24.765625l17.609375 0l0 -18.921875z" fill-rule="nonzero"></path></g></svg>

