<?xml version="1.0" standalone="yes"?>

<svg version="1.1" viewBox="0.0 0.0 193.73753280839895 201.79527559055117" fill="none" stroke="none" stroke-linecap="square" stroke-miterlimit="10" xmlns="http://www.w3.org/2000/svg" xmlns:xlink="http://www.w3.org/1999/xlink"><clipPath id="p.0"><path d="m0 0l193.73753 0l0 201.79527l-193.73753 0l0 -201.79527z" clip-rule="nonzero"></path></clipPath><g clip-path="url(#p.0)"><path fill="#000000" fill-opacity="0.0" d="m0 0l193.73753 0l0 201.79527l-193.73753 0z" fill-rule="evenodd"></path><path fill="#4072af" d="m80.23735 94.973625l0 0c4.1257095 -8.539322 14.393982 -12.119812 22.93483 -7.997246l0 0l0 0c4.1014557 1.9797211 7.2478867 5.5073776 8.747108 9.806908c1.4992218 4.29953 1.2284317 9.018745 -0.7528076 13.119476l-35.61065 73.70629c-4.125717 8.539322 -14.39399 12.119812 -22.934834 7.997238l0 0l0 0c-8.540844 -4.1225586 -12.120014 -14.387054 -7.9943047 -22.926376z" fill-rule="evenodd"></path><path fill="#2a4c75" d="m142.91733 8.065617l-54.04725 0l0 0c-29.849468 0 -54.047245 23.817041 -54.047245 53.19685c0 29.379807 24.197777 53.196854 54.047245 53.196854l54.04725 0z" fill-rule="evenodd"></path><path fill="#4072af" d="m124.58399 8.065617l17.165352 0l0 0c4.552536 0 8.91861 1.8084879 12.137741 5.0276165c3.2191315 3.2191277 5.0276184 7.585203 5.0276184 12.137737l0 89.22835l-34.33071 0z" fill-rule="evenodd"></path><path fill="#4072af" d="m124.57612 25.23097l0 0c0 -9.480163 7.6851883 -17.165354 17.165352 -17.165354l0 0l0 0c4.552536 0 8.91861 1.8084879 12.137741 5.0276165c3.2191315 3.2191277 5.0276184 7.585203 5.0276184 12.137737l0 150.92914c0 9.480164 -7.685196 17.165344 -17.16536 17.165344l0 0l0 0c-9.480164 0 -17.165352 -7.6851807 -17.165352 -17.165344z" fill-rule="evenodd"></path></g></svg>

